<?xml version="1.0" encoding="UTF-8"?>
<!DOCTYPE svg PUBLIC "-//W3C//DTD SVG 1.1//EN" "http://www.w3.org/Graphics/SVG/1.1/DTD/svg11.dtd">
<!-- Creator: CorelDRAW -->
<svg xmlns="http://www.w3.org/2000/svg" xml:space="preserve" width="1392px" height="399px" version="1.1" style="shape-rendering:geometricPrecision; text-rendering:geometricPrecision; image-rendering:optimizeQuality; fill-rule:evenodd; clip-rule:evenodd"
viewBox="0 0 1440.41 413.4"
 xmlns:xlink="http://www.w3.org/1999/xlink"
 xmlns:xodm="http://www.corel.com/coreldraw/odm/2003">
 <defs>
  <style type="text/css">
   <![CDATA[
    .fil0 {fill:#E0E0E0}
    .fil1 {fill:#E74C3C}
    .fil2 {fill:gray;fill-rule:nonzero}
   ]]>
  </style>
 </defs>
 <g id="Layer_x0020_1">
  <metadata id="CorelCorpID_0Corel-Layer"/>
  <g id="_1856685718304">
   <rect class="fil0" width="292.3" height="413.4"/>
   <rect class="fil1" width="17.63" height="413.4"/>
  </g>
  <path class="fil2" d="M536.27 300.22l-22.61 0 -17.99 -52.93 -72.46 0 -17.98 52.93 -21.84 0 62.69 -179.34 27.49 0 62.7 179.34zm-46 -71.94l-22.61 -65 -7.7 -22.36 -1.29 0 -7.71 22.36 -22.61 65 61.92 0z"/>
  <path id="_1" class="fil2" d="M659.08 300.22l-20.56 0 0 -35.2 -86.58 0 0 -19.01 75.02 -125.13 32.12 0 0 126.16 25.95 0 0 17.98 -25.95 0 0 35.2zm-21.84 -162.64l-65 109.46 66.28 0 0 -109.46 -1.28 0z"/>
  <polygon id="_2" class="fil2" points="890.32,300.22 780.86,300.22 780.86,120.88 890.32,120.88 890.32,139.9 802.45,139.9 802.45,200.02 885.18,200.02 885.18,219.03 802.45,219.03 802.45,281.21 890.32,281.21 "/>
  <path id="_3" class="fil2" d="M1010.82 300.22l0 -21.58 -1.03 0c-3.94,8.22 -9.12,14.39 -15.54,18.5 -6.43,4.11 -14.18,6.17 -23.26,6.17 -10.96,0 -20.51,-2.83 -28.64,-8.48 -8.14,-5.66 -14.39,-13.71 -18.76,-24.15 -4.37,-10.45 -6.55,-22.7 -6.55,-36.75 0,-14.21 2.18,-26.5 6.55,-36.87 4.37,-10.36 10.62,-18.37 18.76,-24.02 8.13,-5.65 17.68,-8.48 28.64,-8.48 9.08,0 16.96,2.01 23.64,6.04 6.68,4.03 11.74,10.23 15.16,18.63l1.03 0 0 -79.14 20.55 0 0 190.13 -20.55 0zm-34.17 -15.41c6.33,0 12.07,-1.07 17.21,-3.22 5.14,-2.14 9.25,-5.22 12.33,-9.24 3.09,-4.03 4.63,-8.87 4.63,-14.52l0 -49.33c0,-4.97 -1.54,-9.34 -4.63,-13.11 -3.08,-3.76 -7.19,-6.76 -12.33,-8.99 -5.14,-2.23 -10.88,-3.34 -17.21,-3.34 -11.48,0 -20.6,3.64 -27.37,10.92 -6.76,7.28 -10.15,16.83 -10.15,28.65l0 22.61c0,11.82 3.39,21.37 10.15,28.65 6.77,7.28 15.89,10.92 27.37,10.92z"/>
  <path id="_4" class="fil2" d="M1085.33 136.56c-4.28,0 -7.45,-1.07 -9.51,-3.22 -2.05,-2.14 -3.08,-4.92 -3.08,-8.35l0 -3.34c0,-3.42 1.03,-6.21 3.08,-8.35 2.06,-2.14 5.23,-3.21 9.51,-3.21 4.45,0 7.66,1.07 9.63,3.21 1.98,2.14 2.96,4.93 2.96,8.35l0 3.34c0,3.43 -0.98,6.21 -2.96,8.35 -1.97,2.15 -5.18,3.22 -9.63,3.22zm-10.28 163.66l0 -132.57 20.56 0 0 132.57 -20.56 0z"/>
  <path id="_5" class="fil2" d="M1194.27 300.22l-25.69 0c-7.03,0 -12.42,-2.05 -16.19,-6.16 -3.77,-4.12 -5.65,-9.34 -5.65,-15.68l0 -92.75 -21.84 0 0 -17.98 12.33 0c4.45,0 7.49,-0.9 9.12,-2.7 1.63,-1.8 2.44,-4.93 2.44,-9.38l0 -24.67 18.5 0 0 36.75 29.04 0 0 17.98 -29.04 0 0 96.61 26.98 0 0 17.98z"/>
  <path id="_6" class="fil2" d="M1278.54 303.31c-11.82,0 -22.22,-2.87 -31.21,-8.61 -9,-5.74 -16.02,-13.79 -21.07,-24.15 -5.05,-10.37 -7.58,-22.57 -7.58,-36.62 0,-14.04 2.53,-26.25 7.58,-36.61 5.05,-10.36 12.07,-18.41 21.07,-24.15 8.99,-5.74 19.39,-8.61 31.21,-8.61 11.82,0 22.23,2.87 31.22,8.61 8.99,5.74 16.02,13.79 21.07,24.15 5.05,10.36 7.58,22.57 7.58,36.61 0,14.05 -2.53,26.25 -7.58,36.62 -5.05,10.36 -12.08,18.41 -21.07,24.15 -8.99,5.74 -19.4,8.61 -31.22,8.61zm0 -18.25c11.14,0 20.22,-3.42 27.24,-10.27 7.02,-6.86 10.53,-17.3 10.53,-31.35l0 -19.01c0,-14.05 -3.51,-24.5 -10.53,-31.35 -7.02,-6.85 -16.1,-10.28 -27.24,-10.28 -10.96,0 -19.99,3.43 -27.1,10.28 -7.11,6.85 -10.67,17.3 -10.67,31.35l0 19.01c0,14.05 3.56,24.49 10.67,31.35 7.11,6.85 16.14,10.27 27.1,10.27z"/>
  <path id="_7" class="fil2" d="M1392.88 300.22l-20.56 0 0 -132.57 20.56 0 0 24.4 1.28 0c1.54,-4.28 3.94,-8.26 7.2,-11.94 3.25,-3.69 7.45,-6.68 12.59,-9 5.14,-2.31 11.3,-3.46 18.5,-3.46l7.96 0 0 20.55 -12.08 0c-7.36,0 -13.7,0.98 -19.01,2.95 -5.31,1.97 -9.38,4.59 -12.2,7.84 -2.83,3.26 -4.24,7.02 -4.24,11.3l0 89.93z"/>
 </g>
</svg>
